<svg width="30" height="30" viewBox="0 0 30 30" fill="none" xmlns="http://www.w3.org/2000/svg">
<path d="M3.75 3.5H26.25C26.5815 3.5 26.8995 3.6317 27.1339 3.86612C27.3683 4.10054 27.5 4.41848 27.5 4.75V24.75C27.5 25.0815 27.3683 25.3995 27.1339 25.6339C26.8995 25.8683 26.5815 26 26.25 26H3.75C3.41848 26 3.10054 25.8683 2.86612 25.6339C2.6317 25.3995 2.5 25.0815 2.5 24.75V4.75C2.5 4.41848 2.6317 4.10054 2.86612 3.86612C3.10054 3.6317 3.41848 3.5 3.75 3.5ZM5 6V23.5H25V6H5ZM8.75 16H11.25V21H8.75V16ZM13.75 11.5H16.25V21H13.75V11.5ZM18.75 8.5H21.25V21H18.75V8.5Z" fill="#888888"/>
</svg>
