<svg width="21" height="30" viewBox="0 0 21 30" fill="none" xmlns="http://www.w3.org/2000/svg">
<path d="M4.96804 29.9143C4.74878 29.8217 4.56658 29.6588 4.45017 29.4512C4.33377 29.2437 4.2898 29.0032 4.32519 28.7679L6.27517 16.0716H1.10023C0.93617 16.076 0.773288 16.0427 0.624152 15.9742C0.475017 15.9057 0.343614 15.8038 0.240082 15.6765C0.13655 15.5491 0.0636567 15.3997 0.0270266 15.2397C-0.00960349 15.0797 -0.00899125 14.9135 0.0288157 14.7538L3.24306 0.825372C3.29962 0.585665 3.43704 0.372762 3.63218 0.222502C3.82732 0.0722419 4.06827 -0.00619917 4.31448 0.000382936H15.0286C15.1887 -0.000161312 15.3468 0.035165 15.4915 0.103766C15.6361 0.172367 15.7635 0.2725 15.8643 0.396806C15.9666 0.522517 16.039 0.669788 16.0761 0.827533C16.1132 0.985278 16.1141 1.14939 16.0786 1.30751L14.2251 9.64312H19.3143C19.5151 9.64272 19.712 9.69875 19.8825 9.80484C20.053 9.91092 20.1902 10.0628 20.2786 10.2431C20.3553 10.4162 20.3849 10.6065 20.3642 10.7947C20.3435 10.9829 20.2733 11.1623 20.1607 11.3145L6.23231 29.5286C6.13817 29.6681 6.01249 29.7835 5.86543 29.8654C5.71837 29.9473 5.55409 29.9934 5.38589 30C5.24253 29.9973 5.10088 29.9683 4.96804 29.9143ZM11.5465 11.7859L13.6894 2.14321H5.17161L2.45021 13.9288H8.78228L7.07873 24.9429L17.1715 11.7859H11.5465Z" fill="#888888"/>
</svg>
