<svg width="32" height="32" viewBox="0 0 32 32" fill="none" xmlns="http://www.w3.org/2000/svg">
<path d="M8.22699 23.9997C8.50246 23.219 9.01331 22.5429 9.68913 22.0647C10.3649 21.5865 11.1724 21.3298 12.0003 21.3298C12.8282 21.3298 13.6357 21.5865 14.3115 22.0647C14.9873 22.5429 15.4982 23.219 15.7737 23.9997H29.3337V26.6664H15.7737C15.4982 27.4471 14.9873 28.1231 14.3115 28.6013C13.6357 29.0795 12.8282 29.3363 12.0003 29.3363C11.1724 29.3363 10.3649 29.0795 9.68913 28.6013C9.01331 28.1231 8.50246 27.4471 8.22699 26.6664H2.66699V23.9997H8.22699ZM16.227 14.6664C16.5025 13.8856 17.0133 13.2096 17.6891 12.7314C18.3649 12.2532 19.1724 11.9964 20.0003 11.9964C20.8282 11.9964 21.6357 12.2532 22.3115 12.7314C22.9873 13.2096 23.4982 13.8856 23.7737 14.6664H29.3337V17.333H23.7737C23.4982 18.1137 22.9873 18.7898 22.3115 19.268C21.6357 19.7462 20.8282 20.003 20.0003 20.003C19.1724 20.003 18.3649 19.7462 17.6891 19.268C17.0133 18.7898 16.5025 18.1137 16.227 17.333H2.66699V14.6664H16.227ZM8.22699 5.33302C8.50246 4.55231 9.01331 3.87627 9.68913 3.39807C10.3649 2.91988 11.1724 2.66309 12.0003 2.66309C12.8282 2.66309 13.6357 2.91988 14.3115 3.39807C14.9873 3.87627 15.4982 4.55231 15.7737 5.33302H29.3337V7.99969H15.7737C15.4982 8.7804 14.9873 9.45644 14.3115 9.93463C13.6357 10.4128 12.8282 10.6696 12.0003 10.6696C11.1724 10.6696 10.3649 10.4128 9.68913 9.93463C9.01331 9.45644 8.50246 8.7804 8.22699 7.99969H2.66699V5.33302H8.22699ZM12.0003 7.99969C12.3539 7.99969 12.6931 7.85921 12.9431 7.60916C13.1932 7.35911 13.3337 7.01998 13.3337 6.66635C13.3337 6.31273 13.1932 5.97359 12.9431 5.72354C12.6931 5.4735 12.3539 5.33302 12.0003 5.33302C11.6467 5.33302 11.3076 5.4735 11.0575 5.72354C10.8075 5.97359 10.667 6.31273 10.667 6.66635C10.667 7.01998 10.8075 7.35911 11.0575 7.60916C11.3076 7.85921 11.6467 7.99969 12.0003 7.99969ZM20.0003 17.333C20.3539 17.333 20.6931 17.1925 20.9431 16.9425C21.1932 16.6924 21.3337 16.3533 21.3337 15.9997C21.3337 15.6461 21.1932 15.3069 20.9431 15.0569C20.6931 14.8068 20.3539 14.6664 20.0003 14.6664C19.6467 14.6664 19.3076 14.8068 19.0575 15.0569C18.8075 15.3069 18.667 15.6461 18.667 15.9997C18.667 16.3533 18.8075 16.6924 19.0575 16.9425C19.3076 17.1925 19.6467 17.333 20.0003 17.333ZM12.0003 26.6664C12.3539 26.6664 12.6931 26.5259 12.9431 26.2758C13.1932 26.0258 13.3337 25.6866 13.3337 25.333C13.3337 24.9794 13.1932 24.6403 12.9431 24.3902C12.6931 24.1402 12.3539 23.9997 12.0003 23.9997C11.6467 23.9997 11.3076 24.1402 11.0575 24.3902C10.8075 24.6403 10.667 24.9794 10.667 25.333C10.667 25.6866 10.8075 26.0258 11.0575 26.2758C11.3076 26.5259 11.6467 26.6664 12.0003 26.6664Z" fill="white"/>
</svg>
