<svg width="32" height="32" viewBox="0 0 32 32" fill="none" xmlns="http://www.w3.org/2000/svg">
<path d="M5.3335 20C5.3335 20 9.00049 15.4997 13.0005 15.4997C17.0005 15.4997 17.3335 21.3333 21.3335 21.3333C25.3335 21.3333 26.6668 20 26.6668 20V3.99999C26.6668 3.99999 21.5005 7.99966 17.5005 7.99966C13.5005 7.99966 14.6668 2.66666 10.6668 2.66666C6.66683 2.66666 5.3335 3.99999 5.3335 3.99999V20Z" fill="white"/>
<path d="M5.3335 20C5.3335 20 9.00049 15.4997 13.0005 15.4997M5.3335 20V3.99999M5.3335 20L13.0005 15.4997M13.0005 15.4997C17.0005 15.4997 17.3335 21.3333 21.3335 21.3333M21.3335 21.3333C25.3335 21.3333 26.6668 20 26.6668 20M21.3335 21.3333L26.6668 20M26.6668 20V3.99999M26.6668 3.99999C26.6668 3.99999 21.5005 7.99966 17.5005 7.99966M26.6668 3.99999L17.5005 7.99966M17.5005 7.99966C13.5005 7.99966 14.6668 2.66666 10.6668 2.66666M10.6668 2.66666C6.66683 2.66666 5.3335 3.99999 5.3335 3.99999M10.6668 2.66666L5.3335 3.99999" stroke="white" stroke-width="2" stroke-linecap="round" stroke-linejoin="round"/>
<path d="M5.3335 29.3333V20" stroke="white" stroke-width="2" stroke-linecap="round" stroke-linejoin="round"/>
</svg>
