<svg width="36" height="36" viewBox="0 0 36 36" fill="none" xmlns="http://www.w3.org/2000/svg">
<path d="M31.0006 17.667V34.3337H4.33398V17.667" stroke="#0B2997" stroke-width="2" stroke-linecap="round" stroke-linejoin="round"/>
<path d="M34.3333 9.33398H1V17.6673H34.3333V9.33398Z" stroke="#0B2997" stroke-width="2" stroke-linecap="round" stroke-linejoin="round"/>
<path d="M17.667 34.334V9.33398" stroke="#0B2997" stroke-width="2" stroke-linecap="round" stroke-linejoin="round"/>
<path d="M17.6667 9.33333H10.1667C9.0616 9.33333 8.00179 8.89435 7.22039 8.11294C6.43899 7.33154 6 6.27173 6 5.16667C6 4.0616 6.43899 3.00179 7.22039 2.22039C8.00179 1.43899 9.0616 1 10.1667 1C16 1 17.6667 9.33333 17.6667 9.33333Z" stroke="#0B2997" stroke-width="2" stroke-linecap="round" stroke-linejoin="round"/>
<path d="M17.667 9.33333H25.167C26.2721 9.33333 27.3319 8.89435 28.1133 8.11294C28.8947 7.33154 29.3337 6.27173 29.3337 5.16667C29.3337 4.0616 28.8947 3.00179 28.1133 2.22039C27.3319 1.43899 26.2721 1 25.167 1C19.3337 1 17.667 9.33333 17.667 9.33333Z" stroke="#0B2997" stroke-width="2" stroke-linecap="round" stroke-linejoin="round"/>
</svg>
