<svg width="32" height="36" viewBox="0 0 32 36" fill="none" xmlns="http://www.w3.org/2000/svg">
<path d="M26 11C26 8.34783 24.9464 5.8043 23.0711 3.92893C21.1957 2.05357 18.6522 1 16 1C13.3478 1 10.8043 2.05357 8.92893 3.92893C7.05357 5.8043 6 8.34783 6 11C6 22.6667 1 26 1 26H31C31 26 26 22.6667 26 11Z" stroke="#0B2997" stroke-width="2" stroke-linecap="round" stroke-linejoin="round"/>
<path d="M18.8829 32.667C18.5899 33.1721 18.1693 33.5914 17.6633 33.8829C17.1572 34.1743 16.5835 34.3278 15.9995 34.3278C15.4156 34.3278 14.8419 34.1743 14.3358 33.8829C13.8298 33.5914 13.4092 33.1721 13.1162 32.667" stroke="#0B2997" stroke-width="2" stroke-linecap="round" stroke-linejoin="round"/>
</svg>
