<svg width="41" height="41" viewBox="0 0 41 41" fill="none" xmlns="http://www.w3.org/2000/svg">
<path d="M14.3496 28.6996H16.2419V34.8496H14.3496V28.6996ZM19.5535 23.1646H21.4458V34.8496H19.5535V23.1646ZM24.7573 19.4746H26.6496V34.8496H24.7573V19.4746Z" fill="#888888"/>
<path d="M10.5687 20.8171C10.178 21.2074 10.1776 21.8405 10.5679 22.2313C10.9581 22.622 11.5913 22.6224 11.9821 22.2321L10.5687 20.8171ZM16.526 16.2804L17.2327 15.5729L16.526 14.8671L15.8193 15.5729L16.526 16.2804ZM20.106 19.856L19.3993 20.5635L20.106 21.2694L20.8126 20.5635L20.106 19.856ZM30.7504 9.22461L19.595 12.2064L27.755 20.3763L30.7504 9.22461ZM11.9821 22.2321L17.2327 16.988L15.8193 15.5729L10.5687 20.8171L11.9821 22.2321ZM15.8193 16.988L19.3993 20.5635L20.8126 19.1485L17.2327 15.5729L15.8193 16.988ZM20.8126 20.5635L25.0892 16.2922L23.6759 14.8771L19.3993 19.1485L20.8126 20.5635Z" fill="#888888"/>
</svg>
